<svg width="100" height="100" viewBox="0 0 100 100" fill="none" xmlns="http://www.w3.org/2000/svg">
<circle cx="50" cy="50" r="50" fill="#410564"/>
<mask id="mask0" mask-type="alpha" maskUnits="userSpaceOnUse" x="0" y="0" width="100" height="100">
<circle cx="50" cy="50" r="50" fill="#410564"/>
</mask>
<g mask="url(#mask0)">
<path d="M53.5559 51.3618C51.2128 52.1039 42.8885 50.6524 42.8885 50.6524L42.446 32.2383L55.7752 43.1084V49.7606C55.7752 49.7541 55.8989 50.6198 53.5559 51.3618Z" fill="#FD9F84"/>
<path d="M55.7725 43.3555V49.0248L47.8647 45.3472L55.7725 43.3555Z" fill="#B8735F"/>
<path d="M57.9152 27.038C57.9152 27.038 61.8853 37.9667 59.9002 44.0201C57.9152 50.08 47.1111 45.5627 46.0372 44.0201C44.9633 42.4774 38.9105 35.35 42.002 28.4635C45.0935 21.5704 55.1816 20.7438 57.9152 27.038Z" fill="#FD9F84"/>
<path d="M42.6729 41.9043L45.6863 36.1243C45.6863 36.1243 49.1227 35.3822 49.6434 33.9242C51.1468 29.7259 51.1468 29.7259 51.1468 29.7259C51.1468 29.7259 52.6503 29.8495 54.8502 29.6217C56.666 29.433 58.4298 28.8927 60.0048 27.9749C61.1894 27.285 62.3349 26.3412 62.6082 25.2021C63.7993 20.2292 62.2503 21.173 55.7744 22.4683C55.7744 22.4683 38.9175 17.7427 39.2754 26.3086C39.2754 26.3086 34.8432 34.9136 42.6729 41.9043Z" fill="#1B1A1F"/>
<path d="M49.3965 36.4167C49.3965 36.4167 47.2552 32.5959 44.411 33.1101C41.5668 33.6178 43.0507 38.3954 45.986 40.0813L49.3965 36.4167Z" fill="#FD9F84"/>
<path d="M47.1121 21.1673C47.1121 21.1673 53.8288 20.601 55.3063 19.6181C58.157 17.7175 60.0639 18.7264 60.3633 19.6767C60.6627 20.627 60.461 22.2413 58.6907 23.5366C55.9246 25.5609 51.8633 24.5455 49.6634 23.8946C47.4701 23.2371 47.1121 21.1673 47.1121 21.1673Z" fill="#1B1A1F"/>
<path d="M53.4803 35.6589C53.3957 35.8281 53.3762 36.0234 53.4022 36.2121C53.4413 36.466 53.5519 36.811 53.8448 36.7784C54.3004 36.7198 54.2743 35.8997 53.975 35.6068C53.7211 35.3529 53.5649 35.4831 53.4803 35.6589Z" fill="#1B1A1F"/>
<path d="M58.282 35.6589C58.1974 35.8281 58.1779 36.0234 58.2039 36.2121C58.243 36.466 58.3536 36.811 58.6465 36.7784C59.1021 36.7198 59.0761 35.8997 58.7767 35.6068C58.5229 35.3529 58.3666 35.4831 58.282 35.6589Z" fill="#1B1A1F"/>
<path d="M46.8773 37.2209C46.8578 37.2209 46.8448 37.2144 46.8317 37.2014L44.9573 35.2161C44.9313 35.1901 44.9313 35.151 44.9573 35.125C44.9833 35.099 45.0224 35.099 45.0484 35.125L46.9229 37.1103C46.9489 37.1363 46.9489 37.1753 46.9229 37.2014C46.9033 37.2144 46.8903 37.2209 46.8773 37.2209Z" fill="#1B1A1F"/>
<path d="M56.0365 42.7315C56.0365 42.7315 56.0299 42.7315 56.0365 42.7315C53.9408 42.5558 53.342 40.9481 53.3355 40.9285C53.3225 40.896 53.342 40.8569 53.3745 40.8439C53.4071 40.8309 53.4461 40.8504 53.4591 40.883C53.4656 40.896 54.0384 42.4321 56.043 42.5948C56.082 42.5948 56.1081 42.6274 56.1015 42.6664C56.095 42.7055 56.069 42.7315 56.0365 42.7315Z" fill="#1B1A1F"/>
<path d="M57.2252 40.1758C57.0039 40.1758 56.8542 40.1433 56.8347 40.1368C56.8022 40.1303 56.7761 40.0912 56.7891 40.0587C56.7957 40.0261 56.8347 40.0001 56.8672 40.0131C56.8738 40.0131 57.6222 40.1823 58.1559 39.7527C58.5855 39.4078 58.631 39.0563 58.5334 38.8415C58.4358 38.6267 58.1819 38.5225 57.8956 38.5811C57.8175 38.5941 57.7329 38.5746 57.6548 38.5225C57.082 38.132 56.6785 35.8799 56.659 35.7822C56.6525 35.7497 56.6785 35.7106 56.711 35.7041C56.7436 35.6976 56.7826 35.7237 56.7891 35.7562C56.7957 35.7822 57.1992 38.0474 57.7263 38.4119C57.7784 38.4444 57.824 38.4574 57.8695 38.4509C58.2145 38.3858 58.5204 38.516 58.644 38.7829C58.7612 39.0368 58.7156 39.4533 58.234 39.8504C57.9021 40.1172 57.5116 40.1758 57.2252 40.1758Z" fill="#1B1A1F"/>
<path d="M52.0098 34.3966C51.9903 34.3966 51.9642 34.3836 51.9577 34.3641C51.9382 34.3315 51.9447 34.2925 51.9772 34.2729C53.4547 33.3226 55.0623 34.2599 55.0818 34.2729C55.1143 34.2925 55.1208 34.3315 55.1013 34.3641C55.0818 34.3966 55.0427 34.4031 55.0102 34.3836C54.9972 34.3771 53.4547 33.4723 52.0423 34.3836C52.0293 34.3966 52.0228 34.3966 52.0098 34.3966Z" fill="#1B1A1F"/>
<path d="M57.2511 34.4008C57.2316 34.4008 57.2186 34.3943 57.2055 34.3813C57.1795 34.3553 57.1795 34.3162 57.2055 34.2902C57.2381 34.2642 57.967 33.5872 59.7048 33.457C59.7438 33.457 59.7699 33.4831 59.7764 33.5156C59.7764 33.5547 59.7503 33.5807 59.7178 33.5872C58.0386 33.7109 57.3097 34.3748 57.3032 34.3813C57.2836 34.4008 57.2706 34.4008 57.2511 34.4008Z" fill="#1B1A1F"/>
<path d="M42.7272 21.6901C42.7272 21.6901 47.6346 20.7528 49.7499 19.1386C51.8651 17.5243 56.6228 16.1444 56.2388 19.9066C55.8548 23.6688 47.6346 24.476 47.524 24.476C47.4068 24.476 42.7272 21.6901 42.7272 21.6901Z" fill="#1B1A1F"/>
<path d="M62.827 94.3769H62.8205C62.7879 94.3704 62.7554 94.3443 62.7619 94.3053L64.7274 74.7391C64.7339 74.7066 64.7599 74.674 64.799 74.6805C64.8315 74.687 64.8641 74.7131 64.8576 74.7521L62.892 94.3183C62.892 94.3508 62.8595 94.3769 62.827 94.3769Z" fill="#1B1A1F"/>
<path d="M30.5411 53.875C30.5411 53.875 20.7784 54.7993 16.2811 66.8085C14.0682 72.7317 9.8312 83.5692 8.07391 91.4647C7.05208 96.0601 10.5471 100.421 15.2527 100.421H23.7723L36.3076 63.1829L30.5411 53.875Z" fill="#AD00FF"/>
<path d="M101.579 85.7592L74.2497 61.858C71.731 59.7816 69.4595 57.8354 66.5437 56.3513C63.4522 54.7827 60.0158 53.8519 56.7746 52.6217C56.755 52.6151 56.5533 52.5566 56.5468 52.537L56.2018 49.6145C51.9974 50.2459 42.4365 49.0938 42.4365 49.0938C42.1501 49.9595 41.9548 52.1595 41.9548 52.1595L30.539 53.8779L22.0976 100.424H63.8037L64.9297 85.3166L91.9853 99.8513C95.3697 101.355 99.3463 100.144 101.318 97.0068C103.245 93.9476 104.254 88.1871 101.579 85.7592Z" fill="#AD00FF"/>
<path d="M49.6106 53.5034C48.2178 53.5034 47.0072 53.3927 46.0374 53.256C43.4796 52.885 41.9501 52.2341 41.9306 52.2276C41.8981 52.2146 41.8851 52.1755 41.8981 52.143C41.9111 52.1105 41.9501 52.0974 41.9827 52.1105C41.9957 52.117 43.5187 52.7614 46.057 53.1324C48.4 53.4708 52.1228 53.6336 56.5291 52.4815C56.5616 52.475 56.6006 52.4945 56.6072 52.527C56.6137 52.5596 56.5941 52.5986 56.5616 52.6051C53.9647 53.2756 51.5957 53.5034 49.6106 53.5034Z" fill="#1B1A1F"/>
<path d="M27.7149 86.5432C27.7084 86.5432 27.7019 86.5432 27.6954 86.5432C27.6628 86.5302 27.6433 86.4977 27.6498 86.4651L30.7804 75.7968C30.7934 75.7643 30.8259 75.7447 30.8585 75.7512C30.891 75.7643 30.9105 75.7968 30.904 75.8294L27.7735 86.4977C27.767 86.5302 27.7409 86.5432 27.7149 86.5432Z" fill="#1B1A1F"/>
<path d="M57.9658 87.6195C57.9593 87.6195 57.9593 87.6195 57.9658 87.6195L26.3999 86.5521C26.3608 86.5521 26.3348 86.5195 26.3348 86.487C26.3348 86.4479 26.3673 86.4219 26.3999 86.4219L57.9593 87.4894C57.9984 87.4894 58.0244 87.5219 58.0244 87.5544C58.0244 87.587 57.9984 87.6195 57.9658 87.6195Z" fill="#1B1A1F"/>
<path d="M85.9177 89.2567L104.577 59.6016L116.208 66.423L101.694 96.3776L85.9177 89.2567Z" fill="#AD00FF"/>
<path d="M85.604 100.353H47.3864C46.69 100.353 46.1889 99.6763 46.3971 99.0059L52.7884 78.3657C52.9251 77.9296 53.3221 77.6367 53.7777 77.6367H91.9953C92.6917 77.6367 93.1929 78.3137 92.9846 78.9841L86.5933 99.6243C86.4631 100.054 86.0596 100.353 85.604 100.353Z" fill="#1B1A1F"/>
<path d="M51.8594 100.347H27.4657C27.0492 100.347 26.7042 100.009 26.7042 99.5858C26.7042 99.1692 27.0427 98.8242 27.4657 98.8242H51.8594V100.347Z" fill="#1B1A1F"/>
<path d="M31.6914 99.833H29.7909V98.6419C29.7909 98.4857 29.9211 98.3555 30.0773 98.3555H31.405C31.5612 98.3555 31.6914 98.4857 31.6914 98.6419V99.833Z" fill="#1B1A1F"/>
<path d="M34.7422 99.833H32.8417V98.6419C32.8417 98.4857 32.9719 98.3555 33.1281 98.3555H34.4558C34.612 98.3555 34.7422 98.4857 34.7422 98.6419V99.833Z" fill="#1B1A1F"/>
<path d="M37.7891 99.833H35.8886V98.6419C35.8886 98.4857 36.0188 98.3555 36.175 98.3555H37.5027C37.6589 98.3555 37.7891 98.4857 37.7891 98.6419V99.833Z" fill="#1B1A1F"/>
<path d="M40.835 99.833H38.9345V98.6419C38.9345 98.4857 39.0647 98.3555 39.2209 98.3555H40.5486C40.7048 98.3555 40.835 98.4857 40.835 98.6419V99.833Z" fill="#1B1A1F"/>
<path d="M43.8799 99.833H41.9794V98.6419C41.9794 98.4857 42.1096 98.3555 42.2658 98.3555H43.5935C43.7497 98.3555 43.8799 98.4857 43.8799 98.6419V99.833Z" fill="#1B1A1F"/>
<path d="M87.2339 100.358H47.6105L54.4183 78.3775C54.555 77.9413 54.952 77.6484 55.4076 77.6484H93.6252C94.3216 77.6484 94.8228 78.3254 94.6145 78.9958L88.2232 99.636C88.093 100.059 87.6895 100.358 87.2339 100.358Z" fill="white"/>
<path d="M71.1373 90.9054C70.0805 90.9054 69.2238 90.0487 69.2238 88.9918C69.2238 87.9349 70.0805 87.0781 71.1373 87.0781C72.1941 87.0781 73.0508 87.9349 73.0508 88.9918C73.0508 90.0487 72.1941 90.9054 71.1373 90.9054Z" fill="#1B1A1F"/>
<path d="M5 107.794C5 102.737 9.09986 98.6367 14.1573 98.6367H105.73C110.788 98.6367 114.887 102.737 114.887 107.794H5Z" fill="#C591DE"/>
</g>
</svg>
