<svg width="480" height="344" viewBox="0 0 480 344" fill="none" xmlns="http://www.w3.org/2000/svg">
<path d="M189.78 128.722C180.884 131.539 149.278 126.028 149.278 126.028L147.598 56.1133L198.207 97.3851V122.643C198.207 122.618 198.676 125.905 189.78 128.722Z" fill="#FD9F84"/>
<path d="M198.206 98.3242V119.85L168.182 105.887L198.206 98.3242Z" fill="#B8735F"/>
<path d="M206.336 36.3199C206.336 36.3199 221.41 77.8142 213.873 100.798C206.336 123.806 165.315 106.655 161.238 100.798C157.16 94.9407 134.179 67.8793 145.917 41.7322C157.655 15.5605 195.957 12.4218 206.336 36.3199Z" fill="#FD9F84"/>
<path d="M148.462 92.8141L159.904 70.8684C159.904 70.8684 172.951 68.051 174.928 62.5152C180.636 46.5749 180.636 46.5749 180.636 46.5749C180.636 46.5749 186.345 47.0444 194.697 46.1795C201.592 45.4628 208.289 43.4115 214.269 39.9269C218.766 37.3073 223.115 33.7238 224.153 29.3989C228.675 10.5177 222.794 14.1011 198.206 19.0192C198.206 19.0192 134.204 1.07705 135.563 33.6002C135.563 33.6002 118.734 66.2716 148.462 92.8141Z" fill="#1B1A1F"/>
<path d="M173.989 71.958C173.989 71.958 165.859 57.451 155.06 59.4034C144.261 61.3311 149.896 79.4709 161.04 85.8717L173.989 71.958Z" fill="#FD9F84"/>
<path d="M165.315 14.0773C165.315 14.0773 190.818 11.9272 196.427 8.19545C207.251 0.979065 214.491 4.80968 215.628 8.41788C216.765 12.0261 215.999 18.1551 209.277 23.0731C198.775 30.759 183.355 26.9037 175.002 24.4323C166.674 21.9362 165.315 14.0773 165.315 14.0773Z" fill="#1B1A1F"/>
<path d="M189.507 69.0882C189.186 69.7308 189.111 70.4722 189.21 71.1889C189.359 72.1527 189.779 73.4626 190.891 73.339C192.62 73.1166 192.522 70.0026 191.385 68.8905C190.421 67.9267 189.828 68.421 189.507 69.0882Z" fill="#1B1A1F"/>
<path d="M207.72 69.0882C207.398 69.7308 207.324 70.4722 207.423 71.1889C207.571 72.1527 207.991 73.4626 209.103 73.339C210.833 73.1166 210.734 70.0026 209.598 68.8905C208.634 67.9267 208.041 68.421 207.72 69.0882Z" fill="#1B1A1F"/>
<path d="M164.426 75.0437C164.352 75.0437 164.302 75.019 164.253 74.9695L157.136 67.4319C157.037 67.333 157.037 67.1847 157.136 67.0859C157.235 66.987 157.383 66.987 157.482 67.0859L164.599 74.6235C164.698 74.7224 164.698 74.8707 164.599 74.9695C164.525 75.019 164.475 75.0437 164.426 75.0437Z" fill="#1B1A1F"/>
<path d="M199.193 95.9285C199.193 95.9285 199.169 95.9285 199.193 95.9285C191.236 95.2613 188.963 89.157 188.938 89.0828C188.889 88.9593 188.963 88.811 189.087 88.7616C189.21 88.7121 189.358 88.7863 189.408 88.9099C189.433 88.9593 191.607 94.7917 199.218 95.4095C199.366 95.4095 199.465 95.5331 199.441 95.6814C199.416 95.8297 199.317 95.9285 199.193 95.9285Z" fill="#1B1A1F"/>
<path d="M203.717 86.2399C202.877 86.2399 202.308 86.1163 202.234 86.0916C202.11 86.0669 202.012 85.9186 202.061 85.795C202.086 85.6715 202.234 85.5726 202.358 85.622C202.382 85.622 205.224 86.2646 207.25 84.6335C208.881 83.3237 209.054 81.9891 208.684 81.1736C208.313 80.358 207.349 79.9626 206.262 80.185C205.965 80.2345 205.644 80.1603 205.348 79.9626C203.173 78.4798 201.641 69.9289 201.567 69.5582C201.542 69.4346 201.641 69.2863 201.765 69.2616C201.888 69.2369 202.036 69.3358 202.061 69.4593C202.086 69.5582 203.618 78.1585 205.619 79.5425C205.817 79.6661 205.99 79.7155 206.163 79.6908C207.473 79.4436 208.634 79.9379 209.104 80.9512C209.549 81.915 209.376 83.4967 207.547 85.0042C206.287 86.0175 204.804 86.2399 203.717 86.2399Z" fill="#1B1A1F"/>
<path d="M183.923 64.2717C183.849 64.2717 183.75 64.2223 183.726 64.1482C183.652 64.0246 183.676 63.8763 183.8 63.8022C189.409 60.194 195.513 63.7527 195.587 63.8022C195.711 63.8763 195.736 64.0246 195.661 64.1482C195.587 64.2717 195.439 64.2964 195.315 64.2223C195.266 64.1976 189.409 60.7624 184.047 64.2223C183.998 64.2717 183.973 64.2717 183.923 64.2717Z" fill="#1B1A1F"/>
<path d="M203.816 64.271C203.742 64.271 203.693 64.2463 203.643 64.1968C203.545 64.098 203.545 63.9497 203.643 63.8508C203.767 63.752 206.535 61.1818 213.132 60.6875C213.281 60.6875 213.38 60.7864 213.404 60.9099C213.404 61.0582 213.305 61.1571 213.182 61.1818C206.806 61.6513 204.039 64.1721 204.014 64.1968C203.94 64.271 203.89 64.271 203.816 64.271Z" fill="#1B1A1F"/>
<path d="M148.661 16.0536C148.661 16.0536 167.293 12.4948 175.324 6.36585C183.356 0.236865 201.42 -5.00243 199.962 9.28206C198.504 23.5666 167.293 26.6311 166.873 26.6311C166.428 26.6311 148.661 16.0536 148.661 16.0536Z" fill="#1B1A1F"/>
<path d="M224.994 292.029H224.969C224.846 292.004 224.722 291.905 224.747 291.757L232.21 217.468C232.234 217.344 232.333 217.221 232.481 217.245C232.605 217.27 232.729 217.369 232.704 217.517L225.241 291.806C225.241 291.93 225.118 292.029 224.994 292.029Z" fill="#1B1A1F"/>
<path d="M102.4 138.285C102.4 138.285 65.3324 141.794 48.2568 187.391C39.8549 209.881 23.7677 251.029 17.0956 281.007C13.2159 298.454 26.4859 315.013 44.3523 315.013H76.6996L124.294 173.626L102.4 138.285Z" fill="#AD00FF"/>
<path d="M372.126 259.333L268.363 168.585C258.799 160.701 250.175 153.312 239.104 147.677C227.366 141.721 214.319 138.187 202.013 133.516C201.938 133.491 201.172 133.269 201.148 133.195L199.838 122.098C183.874 124.495 147.573 120.121 147.573 120.121C146.486 123.408 145.745 131.761 145.745 131.761L102.401 138.286L70.3501 315.013H228.701L232.976 257.653L335.701 312.838C348.551 318.547 363.65 313.95 371.137 302.038C378.452 290.423 382.282 268.551 372.126 259.333Z" fill="#AD00FF"/>
<path d="M174.806 136.878C169.518 136.878 164.922 136.458 161.24 135.939C151.528 134.53 145.721 132.059 145.647 132.034C145.523 131.985 145.474 131.836 145.523 131.713C145.573 131.589 145.721 131.54 145.845 131.589C145.894 131.614 151.677 134.061 161.314 135.469C170.21 136.754 184.345 137.372 201.075 132.998C201.198 132.973 201.347 133.047 201.371 133.171C201.396 133.294 201.322 133.443 201.198 133.467C191.338 136.013 182.343 136.878 174.806 136.878Z" fill="#1B1A1F"/>
<path d="M91.6767 262.324C91.652 262.324 91.6273 262.324 91.6026 262.324C91.4791 262.274 91.4049 262.151 91.4296 262.027L103.316 221.521C103.365 221.398 103.489 221.324 103.612 221.348C103.736 221.398 103.81 221.521 103.785 221.645L91.8991 262.151C91.8744 262.274 91.7756 262.324 91.6767 262.324Z" fill="#1B1A1F"/>
<path d="M206.535 266.403C206.511 266.403 206.511 266.403 206.535 266.403L86.685 262.35C86.5368 262.35 86.4379 262.226 86.4379 262.103C86.4379 261.954 86.5615 261.855 86.685 261.855L206.511 265.909C206.659 265.909 206.758 266.032 206.758 266.156C206.758 266.279 206.659 266.403 206.535 266.403Z" fill="#1B1A1F"/>
<path d="M312.644 272.58L383.492 159.984L427.651 185.884L372.545 299.617L312.644 272.58Z" fill="#AD00FF"/>
<path d="M427.652 185.883C427.158 186.748 425.502 186.847 423.007 186.328C422.512 186.229 421.993 186.106 421.45 185.957C421.376 185.933 421.326 185.933 421.277 185.908C416.606 184.598 409.909 181.608 402.842 177.53C398.938 175.281 395.404 172.958 392.414 170.759C392.043 170.487 391.672 170.215 391.326 169.943C390.733 169.498 390.165 169.029 389.621 168.608C384.951 164.827 382.381 161.639 383.196 160.231C384.086 158.698 388.732 159.563 395.107 162.158C395.775 162.43 396.466 162.727 397.183 163.048C397.356 163.122 397.529 163.196 397.702 163.295C400.89 164.728 404.424 166.533 408.031 168.608C416.013 173.205 422.512 178.099 425.7 181.633C425.824 181.781 425.947 181.904 426.071 182.053C426.417 182.448 426.689 182.819 426.936 183.165C427.726 184.302 427.998 185.265 427.652 185.883Z" fill="#1B1A1F"/>
<path d="M476.162 152.051C476.162 152.051 472.233 158.18 468.304 162.085C464.375 165.989 440.627 169.128 440.627 169.128L476.162 152.051Z" fill="#FD9F84"/>
<path d="M472.874 154.547C469.983 156.499 463.855 161.294 451.178 165.717L431.458 172.044L422.686 180.62L421.475 181.781L418.336 184.846C418.287 184.821 418.213 184.796 418.163 184.796C413.542 183.338 406.944 180.175 399.976 175.875C396.146 173.502 392.661 171.08 389.745 168.807C390.437 167.818 391.203 166.78 391.994 165.717C393.032 164.309 394.119 162.875 395.231 161.467C398.567 157.241 402.101 153.311 404.77 151.606C411.64 147.256 432.076 149.283 445.445 146.713C458.838 144.142 472.01 137.915 479.67 140.732C480.288 140.954 480.411 144.612 476.606 145.625C478.879 145.823 482.117 148.27 472.874 154.547Z" fill="#FD9F84"/>
<path d="M426.788 176.614L417.521 169.027L431.458 172.067L426.788 176.614Z" fill="#B8735F"/>
<path d="M311.482 314.743H166.376C163.732 314.743 161.83 312.173 162.62 309.627L186.887 231.26C187.406 229.604 188.913 228.492 190.643 228.492H335.749C338.393 228.492 340.295 231.062 339.505 233.608L315.238 311.975C314.744 313.606 313.212 314.743 311.482 314.743Z" fill="#1B1A1F"/>
<path d="M183.356 314.74H90.7381C89.1565 314.74 87.8468 313.455 87.8468 311.849C87.8468 310.267 89.1318 308.957 90.7381 308.957H183.356V314.74Z" fill="#1B1A1F"/>
<path d="M106.777 312.79H99.5616V308.267C99.5616 307.674 100.056 307.18 100.649 307.18H105.69C106.283 307.18 106.777 307.674 106.777 308.267V312.79Z" fill="#1B1A1F"/>
<path d="M118.366 312.79H111.15V308.267C111.15 307.674 111.645 307.18 112.238 307.18H117.279C117.872 307.18 118.366 307.674 118.366 308.267V312.79Z" fill="#1B1A1F"/>
<path d="M129.932 312.79H122.716V308.267C122.716 307.674 123.21 307.18 123.803 307.18H128.844C129.437 307.18 129.932 307.674 129.932 308.267V312.79Z" fill="#1B1A1F"/>
<path d="M141.496 312.79H134.28V308.267C134.28 307.674 134.775 307.18 135.368 307.18H140.409C141.002 307.18 141.496 307.674 141.496 308.267V312.79Z" fill="#1B1A1F"/>
<path d="M153.062 312.79H145.846V308.267C145.846 307.674 146.34 307.18 146.933 307.18H151.974C152.567 307.18 153.062 307.674 153.062 308.267V312.79Z" fill="#1B1A1F"/>
<path d="M317.662 314.742H167.219L193.067 231.284C193.586 229.628 195.093 228.516 196.823 228.516H341.928C344.572 228.516 346.475 231.086 345.684 233.631L321.418 311.998C320.924 313.605 319.391 314.742 317.662 314.742Z" fill="white"/>
<path d="M256.548 278.883C252.536 278.883 249.283 275.63 249.283 271.617C249.283 267.605 252.536 264.352 256.548 264.352C260.561 264.352 263.813 267.605 263.813 271.617C263.813 275.63 260.561 278.883 256.548 278.883Z" fill="#1B1A1F"/>
<path d="M0 343.003C0 323.801 15.5664 308.234 34.7686 308.234H382.455C401.657 308.234 417.223 323.801 417.223 343.003H0Z" fill="#C591DE"/>
</svg>
