<svg width="208" height="149" viewBox="0 0 208 149" fill="none" xmlns="http://www.w3.org/2000/svg">
<path d="M125.337 56.4595C129.179 57.6762 142.829 55.2961 142.829 55.2961L143.555 25.1016L121.698 42.9258V53.8339C121.698 53.8232 121.495 55.2427 125.337 56.4595Z" fill="#FD9F84"/>
<path d="M121.699 43.332V52.6284L134.666 46.598L121.699 43.332Z" fill="#B8735F"/>
<path d="M118.187 16.5539C118.187 16.5539 111.677 34.4743 114.932 44.4003C118.187 54.3371 135.903 46.9299 137.664 44.4003C139.425 41.8708 149.35 30.1836 144.281 18.8914C139.211 7.58844 122.669 6.23294 118.187 16.5539Z" fill="#FD9F84"/>
<path d="M143.182 40.9516L138.24 31.4738C138.24 31.4738 132.606 30.2571 131.752 27.8663C129.286 20.9821 129.286 20.9821 129.286 20.9821C129.286 20.9821 126.821 21.1849 123.214 20.8113C120.236 20.5018 117.344 19.6159 114.762 18.111C112.819 16.9796 110.941 15.432 110.493 13.5642C108.54 5.40986 111.08 6.95747 121.699 9.08144C121.699 9.08144 149.34 1.3327 148.753 15.3786C148.753 15.3786 156.02 29.4886 143.182 40.9516Z" fill="#1B1A1F"/>
<path d="M132.157 31.9415C132.157 31.9415 135.668 25.6763 140.332 26.5195C144.996 27.352 142.563 35.1861 137.75 37.9505L132.157 31.9415Z" fill="#FD9F84"/>
<path d="M135.903 6.94774C135.903 6.94774 124.89 6.01917 122.467 4.40752C117.792 1.29094 114.666 2.94529 114.175 4.50358C113.684 6.06187 114.014 8.70882 116.917 10.8328C121.453 14.1522 128.113 12.4871 131.72 11.4198C135.316 10.3418 135.903 6.94774 135.903 6.94774Z" fill="#1B1A1F"/>
<path d="M125.457 30.7049C125.596 30.9824 125.628 31.3026 125.585 31.6121C125.521 32.0284 125.34 32.594 124.859 32.5407C124.112 32.4446 124.155 31.0998 124.646 30.6195C125.062 30.2032 125.318 30.4167 125.457 30.7049Z" fill="#1B1A1F"/>
<path d="M117.59 30.7049C117.729 30.9824 117.761 31.3026 117.718 31.6121C117.654 32.0284 117.472 32.594 116.992 32.5407C116.245 32.4446 116.288 31.0998 116.779 30.6195C117.195 30.2032 117.451 30.4167 117.59 30.7049Z" fill="#1B1A1F"/>
<path d="M136.287 33.2774C136.319 33.2774 136.341 33.2667 136.362 33.2454L139.436 29.99C139.478 29.9473 139.478 29.8833 139.436 29.8406C139.393 29.7979 139.329 29.7979 139.286 29.8406L136.213 33.0959C136.17 33.1386 136.17 33.2027 136.213 33.2454C136.245 33.2667 136.266 33.2774 136.287 33.2774Z" fill="#1B1A1F"/>
<path d="M121.272 42.2972C121.272 42.2972 121.283 42.2972 121.272 42.2972C124.709 42.009 125.691 39.3728 125.701 39.3407C125.723 39.2874 125.691 39.2233 125.637 39.202C125.584 39.1807 125.52 39.2127 125.499 39.266C125.488 39.2874 124.549 41.8063 121.262 42.0731C121.198 42.0731 121.155 42.1265 121.166 42.1905C121.176 42.2545 121.219 42.2972 121.272 42.2972Z" fill="#1B1A1F"/>
<path d="M119.32 38.1115C119.683 38.1115 119.928 38.0581 119.96 38.0474C120.013 38.0368 120.056 37.9727 120.035 37.9194C120.024 37.866 119.96 37.8233 119.907 37.8446C119.896 37.8446 118.669 38.1221 117.794 37.4177C117.089 36.852 117.015 36.2757 117.175 35.9235C117.335 35.5713 117.751 35.4005 118.22 35.4965C118.349 35.5179 118.487 35.4859 118.615 35.4005C119.555 34.7601 120.216 31.0672 120.248 30.9071C120.259 30.8537 120.216 30.7897 120.163 30.779C120.109 30.7683 120.045 30.811 120.035 30.8644C120.024 30.9071 119.362 34.6213 118.498 35.219C118.413 35.2724 118.338 35.2938 118.263 35.2831C117.698 35.1763 117.196 35.3898 116.993 35.8274C116.801 36.2437 116.876 36.9268 117.666 37.5778C118.21 38.0154 118.85 38.1115 119.32 38.1115Z" fill="#1B1A1F"/>
<path d="M127.868 28.6228C127.9 28.6228 127.942 28.6014 127.953 28.5694C127.985 28.516 127.974 28.452 127.921 28.42C125.498 26.8617 122.862 28.3986 122.83 28.42C122.777 28.452 122.766 28.516 122.798 28.5694C122.83 28.6228 122.894 28.6335 122.948 28.6014C122.969 28.5908 125.498 27.1072 127.814 28.6014C127.836 28.6228 127.846 28.6228 127.868 28.6228Z" fill="#1B1A1F"/>
<path d="M119.275 28.6257C119.307 28.6257 119.328 28.6151 119.349 28.5937C119.392 28.551 119.392 28.487 119.349 28.4443C119.296 28.4016 118.101 27.2916 115.251 27.0781C115.187 27.0781 115.144 27.1208 115.134 27.1742C115.134 27.2382 115.176 27.2809 115.23 27.2916C117.983 27.4944 119.179 28.583 119.189 28.5937C119.221 28.6257 119.243 28.6257 119.275 28.6257Z" fill="#1B1A1F"/>
<path d="M143.095 7.80042C143.095 7.80042 135.048 6.26348 131.58 3.61652C128.111 0.969564 120.31 -1.29316 120.939 4.87596C121.569 11.0451 135.048 12.3686 135.229 12.3686C135.422 12.3686 143.095 7.80042 143.095 7.80042Z" fill="#1B1A1F"/>
<path d="M110.131 126.99H110.142C110.195 126.979 110.248 126.937 110.238 126.873L107.015 94.7888C107.004 94.7355 106.961 94.6821 106.897 94.6928C106.844 94.7035 106.791 94.7461 106.801 94.8102L110.024 126.894C110.024 126.947 110.077 126.99 110.131 126.99Z" fill="#1B1A1F"/>
<path d="M163.076 60.5898C163.076 60.5898 179.084 62.1054 186.459 81.7975C190.087 91.5101 197.035 109.281 199.916 122.228C201.592 129.763 195.861 136.914 188.145 136.914H174.175L153.62 75.8525L163.076 60.5898Z" fill="#AD00FF"/>
<path d="M46.5884 112.868L91.4011 73.6763C95.5313 70.2715 99.2559 67.0802 104.037 64.6467C109.106 62.0745 114.741 60.5482 120.056 58.531C120.088 58.5203 120.419 58.4242 120.43 58.3922L120.995 53.6C127.89 54.6353 143.567 52.7461 143.567 52.7461C144.037 54.1656 144.357 57.7732 144.357 57.7732L163.076 60.5909L176.918 136.915H108.53L106.684 112.143L62.3193 135.976C56.7697 138.441 50.2489 136.456 47.0153 131.312C43.8563 126.295 42.2021 116.849 46.5884 112.868Z" fill="#AD00FF"/>
<path d="M131.807 59.9836C134.091 59.9836 136.076 59.8022 137.666 59.5781C141.86 58.9697 144.368 57.9024 144.4 57.8917C144.453 57.8704 144.475 57.8063 144.453 57.753C144.432 57.6996 144.368 57.6782 144.315 57.6996C144.293 57.7103 141.796 58.7669 137.634 59.3753C133.792 59.9303 127.687 60.1971 120.462 58.308C120.409 58.2973 120.345 58.3293 120.334 58.3827C120.323 58.436 120.355 58.5001 120.409 58.5107C124.667 59.6101 128.552 59.9836 131.807 59.9836Z" fill="#1B1A1F"/>
<path d="M167.707 114.159C167.718 114.159 167.728 114.159 167.739 114.159C167.792 114.138 167.824 114.084 167.814 114.031L162.68 96.5377C162.659 96.4843 162.606 96.4523 162.552 96.463C162.499 96.4843 162.467 96.5377 162.478 96.5911L167.611 114.084C167.622 114.138 167.664 114.159 167.707 114.159Z" fill="#1B1A1F"/>
<path d="M118.103 115.921C118.114 115.921 118.114 115.921 118.103 115.921L169.863 114.17C169.927 114.17 169.97 114.117 169.97 114.064C169.97 114 169.917 113.957 169.863 113.957L118.114 115.707C118.05 115.707 118.007 115.761 118.007 115.814C118.007 115.868 118.05 115.921 118.103 115.921Z" fill="#1B1A1F"/>
<path d="M72.277 118.588L41.6797 69.9609L22.6084 81.1465L46.4075 130.265L72.277 118.588Z" fill="#AD00FF"/>
<path d="M22.6077 81.1483C22.8211 81.5218 23.5362 81.5645 24.6141 81.3404C24.8275 81.2977 25.0516 81.2443 25.2864 81.1803C25.3184 81.1696 25.3398 81.1696 25.3611 81.1589C27.3782 80.5933 30.2703 79.3018 33.3226 77.5407C35.0088 76.5695 36.535 75.5662 37.8263 74.6163C37.9864 74.4989 38.1465 74.3815 38.2959 74.2641C38.552 74.072 38.7975 73.8692 39.0323 73.6877C41.0493 72.0547 42.1592 70.6779 41.807 70.0695C41.4228 69.4078 39.4165 69.7813 36.663 70.902C36.3749 71.0194 36.076 71.1475 35.7666 71.2863C35.6918 71.3183 35.6171 71.3503 35.5424 71.393C34.1657 72.012 32.6396 72.7912 31.0814 73.6877C27.6343 75.6729 24.8275 77.7862 23.4508 79.3125C23.3974 79.3765 23.3441 79.4299 23.2907 79.4939C23.1413 79.6647 23.0239 79.8248 22.9172 79.9742C22.5757 80.4652 22.4583 80.8814 22.6077 81.1483Z" fill="#1B1A1F"/>
<path d="M1.65723 66.5391C1.65723 66.5391 3.35411 69.186 5.051 70.8724C6.74789 72.5587 17.0039 73.9142 17.0039 73.9142L1.65723 66.5391Z" fill="#FD9F84"/>
<path d="M3.07734 67.6155C4.32599 68.4587 6.97271 70.5293 12.4476 72.4398L20.964 75.1722L24.7527 78.8758L25.2756 79.3774L26.631 80.7009C26.6523 80.6902 26.6843 80.6795 26.7057 80.6795C28.7014 80.0498 31.5509 78.6836 34.5605 76.8265C36.2147 75.8019 37.7194 74.7559 38.9788 73.774C38.6799 73.347 38.3491 72.8988 38.0076 72.4398C37.5594 71.8314 37.0898 71.2124 36.6095 70.604C35.1688 68.7789 33.6426 67.0819 32.49 66.3454C29.5232 64.4669 20.6972 65.3421 14.9235 64.2321C9.13917 63.1221 3.45087 60.4325 0.142473 61.6492C-0.124333 61.7453 -0.177694 63.3249 1.46583 63.7625C0.483985 63.8479 -0.914079 64.9045 3.07734 67.6155Z" fill="#FD9F84"/>
<path d="M22.9809 77.1478L26.983 73.8711L20.9639 75.1839L22.9809 77.1478Z" fill="#B8735F"/>
<path d="M72.7791 136.796H135.446C136.588 136.796 137.41 135.686 137.069 134.587L126.589 100.742C126.364 100.027 125.713 99.5469 124.966 99.5469H62.2989C61.157 99.5469 60.3352 100.657 60.6767 101.756L71.1569 135.601C71.3703 136.305 72.032 136.796 72.7791 136.796Z" fill="#1B1A1F"/>
<path d="M128.112 136.798H168.112C168.795 136.798 169.361 136.243 169.361 135.55C169.361 134.866 168.806 134.301 168.112 134.301H128.112V136.798Z" fill="#1B1A1F"/>
<path d="M161.185 135.954H164.301V134.001C164.301 133.745 164.087 133.531 163.831 133.531H161.654C161.398 133.531 161.185 133.745 161.185 134.001V135.954Z" fill="#1B1A1F"/>
<path d="M156.18 135.954H159.296V134.001C159.296 133.745 159.083 133.531 158.826 133.531H156.649C156.393 133.531 156.18 133.745 156.18 134.001V135.954Z" fill="#1B1A1F"/>
<path d="M151.187 135.954H154.303V134.001C154.303 133.745 154.089 133.531 153.833 133.531H151.656C151.4 133.531 151.187 133.745 151.187 134.001V135.954Z" fill="#1B1A1F"/>
<path d="M146.192 135.954H149.309V134.001C149.309 133.745 149.095 133.531 148.839 133.531H146.662C146.406 133.531 146.192 133.745 146.192 134.001V135.954Z" fill="#1B1A1F"/>
<path d="M141.196 135.954H144.313V134.001C144.313 133.745 144.099 133.531 143.843 133.531H141.666C141.41 133.531 141.196 133.745 141.196 134.001V135.954Z" fill="#1B1A1F"/>
<path d="M70.1091 136.797H135.082L123.919 100.754C123.694 100.039 123.043 99.5586 122.296 99.5586H59.629C58.4871 99.5586 57.6653 100.669 58.0068 101.768L68.487 135.613C68.7004 136.306 69.3621 136.797 70.1091 136.797Z" fill="white"/>
<path d="M96.5019 121.311C98.2348 121.311 99.6395 119.906 99.6395 118.173C99.6395 116.44 98.2348 115.035 96.5019 115.035C94.769 115.035 93.3643 116.44 93.3643 118.173C93.3643 119.906 94.769 121.311 96.5019 121.311Z" fill="#1B1A1F"/>
<path d="M207.3 149C207.3 140.707 200.577 133.984 192.284 133.984H42.1272C33.8342 133.984 27.1115 140.707 27.1115 149H207.3Z" fill="#C591DE"/>
</svg>
