<svg width="30" height="30" viewBox="0 0 30 30" fill="none" xmlns="http://www.w3.org/2000/svg">
<path fill-rule="evenodd" clip-rule="evenodd" d="M15 1.25C7.40625 1.25 1.25 7.40625 1.25 15C1.25 22.5938 7.40625 28.75 15 28.75C22.5938 28.75 28.75 22.5938 28.75 15C28.75 7.40625 22.5938 1.25 15 1.25ZM13.615 11.1688C13.9025 10.6025 14.115 10.3337 14.2912 10.1937C14.4237 10.0887 14.6038 10 15 10C15.7812 10 16.25 10.5875 16.25 11.2225C16.25 11.57 16.1825 11.7425 15.9975 11.9625C15.7388 12.27 15.26 12.6438 14.3125 13.27L13.75 13.64V16.25C13.75 16.5815 13.8817 16.8995 14.1161 17.1339C14.3505 17.3683 14.6685 17.5 15 17.5C15.3315 17.5 15.6495 17.3683 15.8839 17.1339C16.1183 16.8995 16.25 16.5815 16.25 16.25V14.9788C16.9275 14.5112 17.4963 14.0638 17.9087 13.5738C18.505 12.8663 18.75 12.1112 18.75 11.2225C18.75 9.385 17.3337 7.5 15 7.5C14.145 7.5 13.3888 7.72 12.74 8.23375C12.135 8.7125 11.7225 9.37125 11.385 10.04C11.3066 10.1868 11.2583 10.3479 11.2429 10.5136C11.2276 10.6794 11.2455 10.8465 11.2956 11.0053C11.3457 11.164 11.427 11.3111 11.5348 11.438C11.6425 11.5649 11.7745 11.669 11.9231 11.7442C12.0716 11.8194 12.2336 11.8641 12.3997 11.8758C12.5657 11.8875 12.7325 11.8659 12.8901 11.8123C13.0477 11.7587 13.193 11.6742 13.3175 11.5637C13.4419 11.4532 13.5431 11.3189 13.615 11.1688ZM16.25 20.625C16.25 20.2935 16.1183 19.9755 15.8839 19.7411C15.6495 19.5067 15.3315 19.375 15 19.375C14.6685 19.375 14.3505 19.5067 14.1161 19.7411C13.8817 19.9755 13.75 20.2935 13.75 20.625V21.25C13.75 21.5815 13.8817 21.8995 14.1161 22.1339C14.3505 22.3683 14.6685 22.5 15 22.5C15.3315 22.5 15.6495 22.3683 15.8839 22.1339C16.1183 21.8995 16.25 21.5815 16.25 21.25V20.625Z" fill="#AD92B7"/>
</svg>
